<?xml version="1.0" encoding="utf-8"?>
<!-- Generator: Adobe Illustrator 16.2.1, SVG Export Plug-In . SVG Version: 6.00 Build 0)  -->
<!DOCTYPE svg PUBLIC "-//W3C//DTD SVG 1.1//EN" "http://www.w3.org/Graphics/SVG/1.1/DTD/svg11.dtd">
<svg version="1.1" id="Layer_4" xmlns="http://www.w3.org/2000/svg" xmlns:xlink="http://www.w3.org/1999/xlink" x="0px" y="0px"
	 width="612px" height="792px" viewBox="0 0 612 792" enable-background="new 0 0 612 792" xml:space="preserve">
<path fill="#FFFFFF" stroke="#000000" stroke-width="4" stroke-miterlimit="10" d="M-118.499,283.593
	c13.904-1.912,23.751,4.603,36.269,8.801c5.188,1.741,10.644,2.474,15.886,4.009c6.885,2.016,13.281,5.953,19.616,9.264
	c3.375,1.764,7.999,2.042,11.101,4.334c2.999,2.217,2.087,5.418,2.952,8.648c0.822,3.071,1.82,7.898,3.335,10.44
	c0.873,1.463,2.978,2.075,3.679,3.56c0.701,1.486-0.351,4.388-0.606,5.686c-0.803,4.083-2.043,6.83-0.472,10.674
	c1.391,3.403,3.919,6.207,4.408,9.991c0.439,3.405-0.656,6.228-1.268,9.333c-1.584,8.03,1.341,15.928,0.584,23.923
	c-0.42,4.436-0.657,8.942-1.918,13.167c-1.015,3.401-2.847,5.724-2.162,9.463c0.989,5.404,1.833,10.674,2.356,16.233
	c0.566,6.012-1.544,11.354-1.999,17.197c-0.693,8.91-2.435,17.875-2.926,26.699c-0.197,3.538,0.218,7.113,0,10.65
	c-0.244,3.955-3.033,5.825-3.999,9.317c-0.652,2.359,0.477,5.85-1.075,7.941c-1.584,2.136-6.75,3.573-9.276,4.741
	c-6.41,2.964-13.618,4.738-20.333,6.592c-7.629,2.105-15.238,4.87-22.91,6.815c-6.965,1.767-13.846,1.498-21.067,2.577
	c-3.758,0.561-8.155,1.966-12.013,1.356c-3.474-0.549-6.178-3.159-9.259-4.943c-5.755-3.333-9.139-7.003-12.984-12.472
	c-3.351-4.766-2.432-9.963-5.991-14.675c-7.389-9.78-19.251-17.379-24.351-28.992c-2.435-5.546,0.592-10.473-0.074-15.926
	c-0.661-5.407-7.573-8.017-10.917-12.397c-1.593-2.087-4.204-4.096-4.082-6.936c0.12-2.784,3.359-5.805,5.058-7.911
	c3.661-4.538,8.39-8.346,11.6-13.09c7.357-10.875-5.934-22.336-11.26-30.75c-3.321-5.247-3.021-10.649,0.677-15.491
	c2.2-2.88,5.293-5.137,7.333-8c1.457-2.046,2.372-5.339,3.267-8.016c1.166-3.486-0.186-7.691,1.294-11.084
	c0.886-2.032,2.436-3.475,3.048-5.657c0.542-1.931,0.208-2.769,1.642-4.416c2.788-3.201,7.556-4.896,10.936-7.42
	c2.426-1.812,4.479-3.906,6.998-5.571c2.178-1.439,5.046-2.863,6.667-4.986c2.755-3.608,1.242-7.089,2.058-11.021
	C-137.385,289.008-124.24,284.382-118.499,283.593z"/>
<path fill="#FFFFFF" stroke="#000000" stroke-width="4" stroke-miterlimit="10" d="M-80.667,290.667
	c1.586-1.091,2.84-2.998,4.408-3.926c1.437-0.852,2.984-0.648,4.341-1.325c2.042-1.021,4.073-3.196,5.926-4.489
	c5.361-3.74,13.491-15.537,0.912-11.667c-7.193,2.213-14.778,3.953-20.854-1.268c-1.617-1.39-4.552-2.784-4.74-5.073
	c-0.28-3.422,3.806-3.585,2.008-7.593c-0.534-1.189-1.884-1.575-2.006-2.992c-0.119-1.382,1.1-2.484,1.34-3.992
	c0.468-2.938-1.785-5.201-0.35-7.926c1.343-2.55,6.541-4.706,8.958-6.016c4.035-2.186,8.52-3.894,13.064-4.75
	c8.475-1.598,12.271,4.155,15.726,10.693c3.084,5.838,5.1,13.534,4.602,20.25c-0.64,8.619-3.277,19.357-11.316,24.074
	c-2.155,1.265-4.762,1.738-6.667,3.401c-2.283,1.993-0.701,4.374-2.067,5.864c-3.192,3.483-8.994-2.358-11.617-2.932"/>
<path fill="#FFFFFF" stroke="#000000" stroke-width="4" stroke-miterlimit="10" d="M-78.333,520.667
	c0.407-0.759,0.675,2.149,1.425,3.193c0.713,0.992,1.917,1.496,2.667,2.458c2.223,2.852,1.457,6.282,2.836,9.39
	c1.158,2.61,3.34,3.303,2.748,6.627c-0.788,4.417-5.738,3.858-9.374,4.756c-5.613,1.387-18.457,5.752-20.656,11.583
	c-3.49,9.25,13.421,6.984,17.735,7.424c0.271,0.422,0.36,0.88,0.267,1.375c-3.375,1.691-7.084,1.988-7.988,6.529
	c-0.861,4.331,2.534,6.834,4.772,10.279c3.884,5.979,8.469,8.401,15.908,8.386c10.479-0.021,14.981-8.978,16.752-17.373
	c1.007-4.772,0.577-7.334-1.358-11.461c-1.543-3.291-1.53-6.818-2.481-10.424c-0.796-3.018-0.932-6.039-1.251-9.342
	c-0.369-3.812-2.763-7.213-4.25-10.733c-1.885-4.46-5.015-7.821-8.303-11.302c-3.535-3.741-5.103-2.516-9.779-3.031"/>
<path fill="#FFFFFF" stroke="#000000" stroke-width="4" stroke-miterlimit="10" d="M167.5,176
	c-11.489-1.409-22.203-4.523-34.329-4.5c-7.894,0.015-15.735-0.948-23.671-0.5c-7.951,0.449-16.885,4.165-24.026,7.512
	c-21.653,10.148-41.632,29.134-58.458,46.109C15.823,235.914,6.72,246.818-1.648,260.51c-5.773,9.445-7.04,20.241-12.99,29.5
	c-3.67,5.71-8.211,10.093-8.361,17.405c-0.107,5.211,1.788,10.233,1.012,15.585c-1.291,8.896-3.051,29.615-3.128,32.75
	c-0.161,6.5,0.648,14.336,0.089,20.968c-0.582,6.896,1.872,12.347,1.527,19.282c-0.572,11.519-1.5,23.696-1.5,35.015
	c0,19.324,0.5,38.561,0.5,57.874c0,8.317,1.401,17.22,6.012,24.135c2.346,3.518,2.238,9.607,2.238,14.477
	c0,5,7.493,8.627,9.762,12.525c1.816,3.121,3.082,7.039,4.501,10.475c3.298,7.981,9.274,12.332,15.085,19.002
	c7.431,8.527,17.275,15.66,23.386,24.996c5.962,9.108,13.479,15.874,22.734,21.987c6.952,4.591,12.854,10.32,20.843,13.026
	c6.717,2.275,14.024,3.486,21.02,4.613c8.713,1.403,17.528,1.156,26.377,1.764c8.215,0.564,19.339,2.193,27.551,0
	c4.294-1.147,9.602-4.14,12.987-6.777c4.115-3.207,6.088-5.583,7.253-10.111c1.286-4.998,3.23-5.816,5.738-10.5
	c2.643-4.936,3.365-10.31,6.039-15.374c5.092-9.646,9.73-18.746,15.362-28.13c2.463-4.104,2.804-8.944,4.587-13
	c1.42-3.228,5.958-17.146,6.024-20.986c0.26-15.319,3.738-29.93,4.5-45.012c0.655-12.955,2.149-25.014,3.974-37.522
	c1.439-9.863,3.041-19.907,4-29.976c0.458-4.811,1.401-9.419,1.026-14.502c-0.532-7.216-3.443-13.986-4.498-21.139
	c-3.274-22.196-7.464-43.837-9.891-65.959c-1.191-10.857-4.069-22.264-5.723-33.288c-1.748-11.653-5.698-22.75-8.751-33.724
	c-2.469-8.874-4.484-18.325-6.513-27.415c-2.068-9.268-4.042-21.268-8.625-29.486c-1.181-2.118-3.15-2.255-4.776-3.988
	c-2.278-2.429-1.324-2.001-2.335-5.111c-1.993-6.126-3.514-6.854-10.424-7.861c-7.672-1.118-15.554-5.092-23.464-4.527"/>
<path fill="#FFFFFF" stroke="#000000" stroke-width="4" stroke-miterlimit="10" d="M77.5,642.911c9.287-3.479,20,0,31.06-7.933
	c11.375-0.208,22.5,2.887,33.94,3.271c-6.5,8.25-14.929,14.399-21.723,18.113c-12.797,6.996-21.115,14.286-31.027,19.387
	c-4.687,2.412-5.979,6.354-11.142,7.508c-0.598,0.134-5.148-0.686-6.108-0.508c-1.137,0.211-6.483,4.589-7.808,4.774
	c-2.167,0.302-5-1.273-6.553-0.942c-1.982,0.423-3.978,1.799-5.889,2.168c-0.852,0.164-2.225,1.506-2.75,1.639
	c-0.812,0.205-1.862-0.413-3.379,0.09c-1.515,0.502-5.55,3.061-7.147,3.493c-2.403,0.65-3.26-0.87-4.936-0.633
	c-2.474,0.351-6.958,6.9-6.002,0.836c-2.768,1.474-4.87,2.742-6.56,5.325c-1.614,2.468-2.106,4.886-5.268,7.001
	C11.452,709.684,3.89,710.577,0,706.25c-3.131-3.483,0.341-7.916-6.223-7.275c-4.669,0.455-8.087-0.628-11.277,2.525
	c-3.075,3.04-7.813,10.834-9.9,14.607c-1.798,3.25-1.629,10.538-7.1,10.404c-6.482-0.158-6.812-14.03-6.75-19.012
	c0.094-7.474,8.01-21.397-5.262-19.512c-7.951,1.13-15.16,7.813-20.988,13.012c-3.604,3.214-6.439,7.895-10,3.75
	c-3.101-3.609-2.115-11.094-1.5-15.5c0.733-5.254,1.342-7.811,4.062-12.5c1.204-2.076,4.201-4.967,5.402-6.861
	c2.165-3.413,6.242-5.248,8.032-8.886c-3.354,1.521-6.151-0.702-9.247,1.997c-2.296,2.003-4.614,6.824-6.803,9.012
	c-5.653,5.648-6.089,11.625-6.197,19.738c-0.097,7.303,2,16-1.387,21.225c-1.737,5.619,6.63,11.13,14.136,17.974
	c-0.192,0.037-0.385,0.074-0.578,0.11c-6.539-1.767-12.707-6.482-13.917-8.07c-1.993-2.615-4.884-6.045-6.391-9.1
	C-97.75,702-92.007,693.195-89.5,685c2.312-7.558,3.824-12.915,8-19.75c1.984-3.247,7.799-8.771,16.25-10.75
	c6.584-1.542,9.728-4.365,9-6c-1.265-2.84-11.352-4.534-14.75-7.25c-3.031-2.423-3.545-9.349,2.132-11.385
	c3.132-1.123,5.738,2.828,8.87,3.133c8.408,0.82,17.18-0.011,25.498,2.752c7.1,2.357,12.024,3.873,19.027,7.111
	c7.354,3.4,17.946,6.188,25.723,8.389c9.417,2.665,24.271,1.936,33.5,0.25C56.155,649.234,67.25,646.75,77.5,642.911z"/>
<path fill="#FFFFFF" stroke="#000000" stroke-width="4" stroke-miterlimit="10" d="M82,161.25c9.287,3.479,19.94,0.567,31,8.5
	c11.375,0.208,24.56,1.516,36,1.131c-6.5-8.25-14.403-18.559-21.196-22.272c-12.797-6.996-21.115-14.286-31.027-19.387
	c-4.687-2.412-5.979-6.354-11.142-7.508c-0.598-0.134-5.148,0.686-6.108,0.508c-1.137-0.211-6.483-4.589-7.808-4.774
	c-2.167-0.302-5,1.273-6.553,0.942c-1.982-0.423-3.978-1.799-5.889-2.168c-0.852-0.164-2.225-1.506-2.75-1.639
	c-0.812-0.205-1.862,0.413-3.379-0.09c-1.515-0.502-4.55-6.061-6.147-6.493c-2.403-0.65-3.324,3.237-5,3
	c-2.474-0.351-4.75-8.75-5.938-3.203c-2.768-1.474-4.87-2.742-6.56-5.325c-1.614-2.468-2.106-4.886-5.268-7.001
	c-4.757-3.183-12.318-4.076-16.208,0.251c-3.131,3.483,0.341,7.916-6.223,7.275c-4.669-0.455-8.087,0.628-11.277-2.525
	c-3.075-3.04-7.813-10.834-9.9-14.607c-1.798-3.25-1.629-10.538-7.1-10.404c-6.482,0.158-6.812,14.03-6.75,19.012
	c0.094,7.474,8.01,21.397-5.262,19.512c-7.951-1.13-15.16-7.813-20.988-13.012c-3.604-3.214-6.439-7.895-10-3.75
	c-3.101,3.609-2.115,11.094-1.5,15.5c0.733,5.254,1.342,7.811,4.062,12.5c1.204,2.076,4.201,4.967,5.402,6.861
	c2.165,3.413,6.242,5.248,8.032,8.886c-3.354-1.521-6.151,0.702-9.247-1.997c-2.296-2.003-4.614-6.824-6.803-9.012
	c-5.653-5.648-6.089-11.625-6.197-19.738c-0.097-7.303,2-16-1.387-21.225c-1.737-5.619,6.63-11.13,14.136-17.974
	c-0.192-0.037-0.385-0.074-0.578-0.11c-6.539,1.767-12.707,6.482-13.917,8.07c-1.993,2.615-4.884,6.045-6.391,9.1
	c-5.863,11.889-0.12,20.693,2.387,28.889c2.312,7.558,3.824,12.915,8,19.75c1.984,3.247,7.799,8.771,16.25,10.75
	c6.584,1.542,9.728,4.365,9,6c-1.265,2.84-11.352,4.534-14.75,7.25c-3.031,2.423-3.545,9.349,2.132,11.385
	c3.132,1.123,5.738-2.828,8.87-3.133c8.408-0.82,17.18,0.011,25.498-2.752c7.1-2.357,12.024-3.873,19.027-7.111
	c7.354-3.4,17.946-6.188,25.723-8.389c9.417-2.665,24.271-1.936,33.5-0.25C64.182,152.737,71.75,157.411,82,161.25z"/>
<path fill="#FFFFFF" stroke="#000000" stroke-width="4" stroke-miterlimit="10" d="M244,642c1.216,4.511-0.089,8.979-0.012,13.523
	c0.078,4.59,2.818,7.684,3.51,11.988c0.681,4.233-0.417,7.986,1.115,11.977c3.443,8.969,9.613,13.129,14.778,20.521
	c12.075,17.285,26.826,26.781,46.135,34.992c8.137,3.46,15.295,9.129,23,13.51c9.114,5.181,18.499,10.326,28.098,14.875
	c8.108,3.844,18.261,8.546,27.377,9.639c4.266,0.512,7.763-1.025,12-1.025c4.534,0,8.182,1.288,12.123,2.377
	c4.191,1.159,7.748,2.496,11.852-0.377c4.905-3.436,1.121-5.365,3.014-10.5c1.979-5.365,15.803-2.067,20.335-0.074
	c-2.678-1.678-4.997-4.121-8.224-4.438c6.558-0.205,12.816,4.201,18.053,6.499c-2.538-0.811-3.939-2.926-3.966-5.412
	c6.118-0.159,12.394,6.811,18.211,7.359c-2.115-1.426-4.774-2.38-5.369-4.857c6.569-0.46,11.231,7.181,16.896,6.848
	c0.229-2.033-0.905-3.555-2.818-4.385c7.065,4.892,19.688,5.852,27.948,7.349c7.502,1.359,13.995,3.064,20.92,5.248
	c6.52,2.057,12.136,0.443,18.15,3.739c5.879,3.222,12.491,4.629,18.3,7.572c0.061-0.653,0.044-1.213,0-1.861
	c-4.143-1.277-8.355-1.881-12.412-3.602c-2.474-1.049-9.737-5.938-9.537-9.46c0.102-1.78,9.657-7.233,12.149-9.401
	c3.631-3.157,7.104-6.898,9.371-11.03c-6.581-0.695-14.014,9.013-19.984,11.282c-5.447,2.071-13.092,0.825-19.012,1.124
	c-8.424,0.426-16.301-1.197-24.521-1.998c-7.635-0.744-16.249-0.918-22.521-6.138c3.455-0.901,7.712-0.249,11.29-0.449
	c-4.435-2.878-12.671-0.909-17.749-0.915c-1.265-0.001-10.97-0.05-6.52-2.547c1.896-1.064,7.239,0.106,9.483-0.04
	c-1.919-6.999-23.427,6.576-25.561-0.926c2.66-1.57,8.066-0.121,9.057-2.913c-7.167-0.346-27.879,3.958-28.508-6.976
	c-23.204-3.243-46.98,6.551-69.839-2.708c-7.753-3.141-16.794-9.769-23.498-15.016c-7.326-5.732-14.191-9.692-22.442-14.275
	c-6.51-3.615-13.009-8.218-19.673-11.461c-3.097-1.507-20.696-9.441-19.036-13.664c1.001-2.547,4.233-0.693,5.562-2.05
	c1.604-1.638,0.841-4.357,1.087-6.425c0.597-5.006,3.505-7.109,6.264-11.123c3.894-5.664,16.202-15.879,15.125-23.377
	c-0.144-0.998,0.045-1.99-0.161-2.925c-10.694-0.548-21.036,1.891-31.425,2.913c-9.289,0.915-20.064-1.602-28.414-0.488"/>
<path fill="#FFFFFF" stroke="#000000" stroke-width="4" stroke-miterlimit="10" d="M247,160.666
	c-1.99-6.332-1.868-9.788-1.791-14.332c0.078-4.59-0.567-8.029,0.124-12.333c0.682-4.233,3.134-8.4,4.667-12.39
	c2.002-5.215,5.373-6.849,10.34-12.367c2.841-3.155,3.788-8.795,6.66-11.243c10.333-8.807,26.217-24.125,45.525-32.336
	c8.137-3.46,15.295-9.129,23-13.51c9.114-5.181,18.499-8.326,28.098-12.875c8.108-3.844,18.261-8.546,27.377-9.639
	c4.266-0.512,7.763,1.025,12,1.025c4.534,0,8.182-1.288,12.123-2.377c4.191-1.159,8.748-2.496,12.852,0.377
	c4.905,3.436,2.121,7.365,4.014,12.5c1.979,5.365,13.803,0.067,18.335-1.926c-2.678,1.678-4.997,4.121-8.224,4.438
	c6.558,0.205,12.816-4.201,18.053-6.499c-2.538,0.811-3.939,2.926-3.966,5.412c6.118,0.159,12.394-6.811,18.211-7.359
	c-2.115,1.426-4.774,2.38-5.369,4.857c6.569,0.46,11.243-4.987,16.896-6.848c0.229,2.033-0.905,3.555-2.818,4.385
	c9.561-1.959,19.688-4.852,27.948-6.349c7.502-1.359,13.995-3.064,20.92-5.248c6.52-2.057,14.136,0.557,20.15-2.739
	c5.879-3.222,12.491-4.629,18.3-7.572c0.061,0.653,0.044,1.213,0,1.861c-4.143,1.277-7.034,3.367-11.091,5.088
	c-2.474,1.049-8.2,4.812-8,8.333c0.102,1.78,4.799,4.874,7.291,7.042c3.631,3.157,7.104,6.898,9.371,11.03
	c-5.996-4.738-14.014-9.013-19.984-11.282c-5.447-2.071-10.758,0.843-16.678,0.544c-8.424-0.426-18.635-0.471-26.855,0.33
	c-7.635,0.744-16.249,0.918-22.521,6.138c3.455,0.901,7.712,0.249,11.29,0.449c-4.435,2.878-12.671,0.909-17.749,0.915
	c-1.265,0.001-10.97,0.05-6.52,2.547c1.896,1.064,7.239-0.106,9.483,0.04c-10.795,4.581-17.883-0.991-25.561,0.926
	c2.66,1.57,8.066,0.121,9.057,2.913c-3.851,0.186-11.609-0.97-18.065-0.385c-2.151,0.195,15.774,2.127,18.441,8.127
	c-10.9-4.817-26.819-5.469-27.629-4.391c-0.726,0.966-1.171,2.158-1.255,3.625c-21.995-1.233-46.98-6.551-69.839,2.708
	C355.858,65.416,345,74,336.334,77.667c-8.567,3.625-9.749,6.345-18,10.928c-6.51,3.615-13.336,8.163-20,11.406
	c-3.097,1.507-19.66,6.111-18,10.333c0.393,1-0.574,3.039,0,4.333c0.888,2.002,3.383,2.25,4.19,3.074
	c1.604,1.638,2.564,5.192,2.81,7.259c0.597,5.006,1.784,7.275,4.542,11.289c3.895,5.664,14.125,16.378,17.792,25.043
	c-10.694,0.548-23.864-0.632-34.253-1.655c-9.289-0.915-20.064,1.602-28.414,0.488"/>
<path fill="#FFFFFF" stroke="#000000" stroke-width="4" stroke-miterlimit="10" d="M360,629c-2.25,7.375-4.75,13.911-6.375,21.75
	c-1.685,8.127-3.125,15.675-3.125,24.375c0,14.92,1.761,28.565,9.625,41.25c3.875,6.25,10.697,14.84,15.877,18.236
	c6.409,4.202,14.664,2.794,22.023,3.863c13.639,1.98,28.765,2.025,42.823,2.025c-2.064,0.304-2.974-0.875-5.307-1.413
	c7.509-0.43,15.868,1.389,23.031,0.411c-0.396-0.153-1.254-1.248-2.023-1.896c7.382-0.542,16.822,0.341,23.36-0.976
	c-0.644-0.229-1.872-1.158-2.785-1.376c6.403-0.854,14.288,0.258,20.773,0.25c3.144-0.004,7.977,0,11.562-0.415
	c-3-0.582-5.085-1.085-7.585-2.71c6.25-0.25,17.673-0.31,24-0.625c1.727-0.086,0.782-1.784,3.5-1.875c5.646-0.189,13.408,1,17,1
	c5.968,0,2.1-2.663,3.75-3.5c1.144-0.58,11.42-1.42,16.084-1.375c2.229,0.021,5.154,1.057,7.303,0.51
	c1.471-0.374-0.166-2.702,1.613-3.385c3.911-1.499,13.451-0.665,17.625-0.75c3.61-0.073,9.478-0.625,15-0.625
	c4.25,0,8.499-0.538,12.223-1.277c4.499-0.894,18.402-0.848,23.152-2.598c-2.625-1.875-9.678-1.251-11.196-2.362
	c2.896-3.198,10.728-3.509,14.696-4.263c6.725-1.277,1.408-2.392,4.375-3.875c4.75-2.375,21.068-3.095,29.375-3.5
	c-3.176-2.041-5.01-2.146-7.25-2.625c7.27-1.076,13.329-1.924,19.326-5.652c-3.337-0.153-6.869-0.134-10.06-0.875
	c5.94-0.214,15.222-3.637,20.608-5.848c3.367-1.382,0.539-3.652,4-4.75c3.573-1.133,12.791-1.023,15.557-2.816
	c-3.557-0.934-6.074-1.797-8.932-1.934c22.75-4.25,12.875-17.125,15.875-33.375c0.681-3.688,1.567-6.528,3.377-9.901
	c0.998-1.859,4.726-6.57,4.998-8.349c0.335-2.181-2.538-2.727-2.5-4.5c2.875-10.125,14.5-15.053,14.5-16.625
	c-2.623,0.843-2.794,1.555-6.125,2.375c1.375-2.25,2.502-2.909,4.625-7c-2.947,1.875-5.385,6.262-7.5,7
	c1.539-4.177,11.16-18.424,13.125-24c-3.625,4.25-5.25,5.625-8.125,7.625c1.75-5.625,3.396-6.371,4.377-11.066
	c0.64-3.062,3.123-12.184,5.123-16.559c-1.818,0.663-3.875,6.656-6.25,8.75c0.75-5.5,1.17-10.872,1.865-16.275
	c0.596-4.633,1.937-9.213,2.635-13.725c0.887-5.728,2.88-11.347,5.385-15.826c2.199-3.933,3.335-7.465,4.49-9.949
	c1.5-3.225,2.188-6.392,3.625-10.225c1.517-4.042,0.375-7.875-1.25-12c0.83-3.653,3.227-7.638,5.625-10.75
	c1.271-1.648,6.814-9.798,10-15.125c-4.613,3.043-12.998,12.414-16.125,17c-1.404,2.06-1.904,3.441-3.375,7.625
	c-2,0.25-4.75,0-6.875,0.125c-0.751-2.255-1.603-5.605-2.625-7.75c-1.468-3.079-3.689-10.972-6.125-14.625
	c1,5.375,1.808,9.097,3.875,14.125c1.535,3.734,2.291,6.223,2.5,10.5c-2.375,5.75-4.353,8.911-5,13.625
	c-0.585,4.261-1.725,14.061-2.211,18.375c-0.789,7-1.414,13.875-2.024,23.145c-0.371,5.632-1.14,15.116-3.479,22.417
	c-0.153-2.386-1.282-6.831-1.536-12.187c0.312,2.291-0.101,13.561,0.024,16.75c0.177,4.524-0.029,7.009-1.939,10.691
	c0.229-3.362-0.585-7.816-0.96-12.191c-1.75,9.375-0.25,23.75-4.063,28.412c-0.828-7.135-2.312-8.162-3.114-16.532
	c-4.697,9.12-6.449,18.204-11.447,27.621c-1.985,3.741-5.958,3.499-7.535,7.536c-1.692,4.33-1.247,7.444-4.064,11.674
	c-4.404,6.609-5.422,11.082-12.4,15.29c-1.133,0.683-4.185,0.688-6.5,2.167c-1.96,1.252-3.233,4.028-3.99,4.316
	c-3.102,1.178-2.793-3.078-7.485-1.909c-4.774,1.19-3.758,7.531-9.086,7.875c-0.267-1.27-1.204-1.77-1.014-3.373
	c-3.036-0.027-4.678,4.235-6.913,6.062c-2.041,1.668-5.74,3.837-8.133,4.748c-3.863,1.472,0.271-2.787-3.464-0.595
	c-1.361,0.799-3.748,5.042-12.915,7.232c-1.643,0.393-2.899,0.354-4.527,0.978c-3.541,1.355-4.295,3.418-8.25,4.04
	c-2.225,0.351-4.41-1.365-6.723-1.041c-1.821,0.255-3.783,2.486-5.487,3.12c-6.033,2.244-11.293,3.14-17.936,2.804
	c0.105-0.576,0.085-1.214,0.248-1.859c-13.31,4.157-28.262,3.884-42.2,6.81c-18.487,3.881-37.271,6.338-56,8
	c-14.697,1.305-29.358,6.423-44,8.25c-6.832,0.853-13.851,2.358-20.525,4.264c-4.527,1.293-9.355,2.536-14.213,2.611
	c-6.07,0.094-9.473-0.229-5.385-6c3.146-4.441,6.041-6.502,8.623-11.5c2.728-5.28,6.705-9.588,9.375-14.25
	c5.092-8.895,8.234-16.974,12.625-26.125c5.062-10.548,10-26.375,11.251-31.262c1.493-5.832,1.255-10.277-0.001-11.988
	c-6,0.625-18.197,0.808-23.941,1.9c-12.63,2.401-26.028,1.877-39.067,4.063c-8.687,1.456-16.899,2.053-26.012,1.228
	C360.791,622.634,359.738,628.135,360,629"/>
<path fill="#FFFFFF" stroke="#000000" stroke-width="4" stroke-miterlimit="10" d="M362,173.875
	c-2.25-7.375-4.75-13.911-6.375-21.75c-1.685-8.127-3.125-15.675-3.125-24.375c0-14.92,1.511-26.44,9.375-39.125
	c3.875-6.25,9.947-15.965,15.127-19.361c6.409-4.202,14.639-4.05,21.998-5.119c13.639-1.98,28.79-0.77,42.849-0.77
	c-2.064-0.304-2.974,0.875-5.307,1.413c7.509,0.43,15.868-1.389,23.031-0.411c-0.396,0.153-1.254,1.248-2.023,1.896
	c7.382,0.542,16.822-0.341,23.36,0.976c-0.644,0.229-1.872,1.158-2.785,1.376c6.403,0.854,14.288-0.258,20.773-0.25
	c3.144,0.004,7.977,0,11.562,0.415c-3,0.582-5.085,1.085-7.585,2.71c6.25,0.25,17.673,0.31,24,0.625
	c1.727,0.086,0.782,1.784,3.5,1.875c5.646,0.189,14.408,0,18,0c5.968,0,2.1,2.663,3.75,3.5c1.144,0.58,11.42,1.42,16.084,1.375
	c2.229-0.021,5.154-1.057,7.303-0.51c1.471,0.374-0.166,2.702,1.613,3.385c3.911,1.499,11.451,0.665,15.625,0.75
	c3.61,0.073,9.478,0.625,15,0.625c4.25,0,8.499,0.538,12.223,1.277c4.499,0.894,18.402,0.848,23.152,2.598
	c-2.625,1.875-9.678,1.251-11.196,2.362c2.896,3.198,13.728,4.509,17.696,5.263c6.725,1.277,1.408,2.392,4.375,3.875
	c4.75,2.375,18.068,2.095,26.375,2.5c-3.176,2.041-5.01,2.146-7.25,2.625c3.25,0.625,1.744,1.565,3.625,2.125
	c3.142,0.936,11.167-0.328,12.125,0.875c-0.208,1.672-0.875,3.75-2.25,5.125c5.94,0.214,10.988,2.039,16.375,4.25
	c3.367,1.382,1.039,5.402,4.5,6.5c3.573,1.133,11.25,3.25,17,3.5c-3.557,0.934-5.143,1.738-8,1.875
	C739.25,132.125,728,142.75,731,159c0.681,3.688,0.067,6.403,1.877,9.776c0.998,1.859,4.726,6.57,4.998,8.349
	c0.335,2.181-2.538,2.727-2.5,4.5c2.875,10.125,14.5,15.053,14.5,16.625c-2.623-0.843-2.794-1.555-6.125-2.375
	c1.375,2.25,2.502,2.909,4.625,7c-2.947-1.875-5.385-6.262-7.5-7c1.539,4.177,11.16,18.424,13.125,24
	c-3.625-4.25-5.25-5.625-8.125-7.625c1.75,5.625,3.396,6.371,4.377,11.066c0.64,3.062,4.873,15.934,6.873,20.309
	c-1.818-0.663-4.125-6.531-6.5-8.625c0.75,5.5-0.33,6.997,0.365,12.4c0.596,4.633,1.937,9.213,2.635,13.725
	c0.887,5.728,2.495,12.896,5,17.375c2.199,3.933,2.845,6.016,4,8.5c1.5,3.225,2.562,7.042,4,10.875
	c1.517,4.042-0.125,9.125-1.75,13.25c0.83,3.653,3.227,7.638,5.625,10.75c1.271,1.648,6.814,9.798,10,15.125
	c-4.613-3.043-12.998-12.414-16.125-17c-1.404-2.06-1.904-3.441-3.375-7.625c-2-0.25-3.875,0.625-6,0.5
	c-0.751,2.255-1.478,2.98-2.5,5.125c-1.468,3.079-3.689,10.972-6.125,14.625c1-5.375,1.808-9.097,3.875-14.125
	c1.535-3.734,1.916-4.473,2.125-8.75C750,304,748.647,301.589,748,296.875c-0.585-4.261-1.975-16.561-2.461-20.875
	c-0.789-7-1.414-13.875-2.024-23.145c-0.371-5.632,0.074-14.055-2.265-21.355c-0.153,2.386-1.996,7.895-2.25,13.25
	c0.312-2.291,0-13.936,0.125-17.125c0.177-4.524,0.711-5.525-1.199-9.208c-0.801,1.208-0.551,7.083-0.926,11.458
	c-1.75-9.375-0.437-26.213-4.25-30.875c-0.828,7.135-3.5,8.125-4.303,16.495c-4.697-9.12-6.449-18.204-11.447-27.621
	c-1.985-3.741-5.958-3.499-7.535-7.536c-1.692-4.33-1.247-7.444-4.064-11.674c-4.404-6.609-5.422-11.082-12.4-15.29
	c-1.133-0.683-4.185-0.688-6.5-2.167c-1.96-1.252-3.233-4.028-3.99-4.316c-3.102-1.178-2.793,3.078-7.485,1.909
	c-4.774-1.19-3.758-7.531-9.086-7.875c-0.267,1.27-1.204,1.77-1.014,3.373c-3.036,0.027-4.678-4.235-6.913-6.062
	c-2.041-1.668-5.74-3.837-8.133-4.748c-3.863-1.472,0.271,2.787-3.464,0.595c-1.361-0.799-3.748-5.042-12.915-7.232
	c-1.643-0.393-2.899-0.354-4.527-0.978c-3.541-1.355-4.295-3.418-8.25-4.04c-2.225-0.351-4.41,1.365-6.723,1.041
	c-1.821-0.255-3.783-2.486-5.487-3.12c-6.033-2.244-11.293-3.14-17.936-2.804c0.105,0.576,0.085,1.214,0.248,1.859
	c-13.31-4.157-28.262-3.884-42.2-6.81c-18.487-3.881-34.271-8.338-53-10c-14.697-1.305-29.358-6.423-44-8.25
	c-6.832-0.853-13.851-2.358-20.525-4.264c-4.527-1.293-8.867-3.286-13.725-3.361c-6.07-0.094-8.963-0.021-4.875,5.75
	c3.146,4.441,5.043,7.502,7.625,12.5c2.728,5.28,6.705,9.588,9.375,14.25c5.092,8.895,8.609,17.349,13,26.5
	c5.062,10.548,6.625,28,7.876,32.887c1.493,5.832,1.255,10.277-0.001,11.988c-6-0.625-17.594-3.381-23.338-4.474
	c-12.63-2.401-24.298-6.282-37.337-8.468c-8.687-1.456-16.356-0.458-25.469,0.367c-0.563-0.567-4.493-0.685-4.231-1.55"/>
<path fill="#FFFFFF" stroke="#000000" stroke-width="4" stroke-miterlimit="10" d="M348.5,176.5
	c-8.012,3.399-19.991-5.77-26.502-10.389c-8.312-5.897-20.197-5.725-29.982-6.109c-28.016-1.101-50.885,0.052-72.516,10.879
	c-9.714,4.862-17.333,11.882-24,20.619c-3.967,5.199-8.95,12.372-7.314,17.578c1.426,4.538,0.96,3.798,2.966,8.422
	c2.502,5.769,4.713,11.88,7.348,24.5c1.225,5.866,2.805,29.36,7,43.396c2.05,6.86,2.832,12.832,3.462,19.904
	c0.46,5.158,2.761,9.39,3.049,14.589c0.3,5.417,0.404,10.586,1.598,15.952c2.809,12.622,5.077,26.018,9.266,38.172
	c1.656,4.805,2.77,9.505,4.013,14.539c1.043,4.222,1.98,12.393,2.611,15.948c1.595,8.988,0.078,18.983-2.109,27.9
	c-5.559,22.657-9.891,44.877-9.891,69.014c0,15.281-4.36,28.929-7.389,43.601c-2.498,12.099-6.678,24.185-11.111,35.485
	c-2.476,6.312-9.544,20.558-6.424,27.5c1.422,3.165,9.17,8.832,11.963,10.912c4.382,3.262,9.375,5.062,13.461,8.588
	c4.745,4.095,7.435,7.598,13.527,9.485c5.205,1.614,10.684,2.695,16.036,3.54c11.581,1.83,22.768,3.389,34.472,1.586
	c10.831-1.668,21.847-2.342,32.464-5.11c9.946-2.595,15.137-6.258,24.5-10.501c4.306-1.951,11.586-2.568,16.187-3.485
	c10.075-2.009,20.924-1.632,31.149-2.124c22.222-1.07,43.77-4.729,65.601-7.768c9.253-1.288,22.568-5.214,31.563-8.123
	c16.04-5.187,22.854-6.498,30.715-10.99c20.809-11.893,37.837-22.081,55.785-38.176c14.345-12.864,30.739-31.283,38-49.834
	c4.841-12.365,14.319-24.079,17.111-36.889c2.361-10.835,6.851-22.178,7.387-33.613c0.442-9.435,1.919-18.775,2.5-27.891
	c0.638-9.993-5.498-19.11-5.498-29.605c0-7.755-2.239-20.531-4.5-28.002c-3.031-10.019-4.163-14.733-7.502-24.639
	c-10.669-31.651-27.943-61.423-54.63-82.879c-11.555-9.291-22.672-16.905-35.229-24.62c-9.038-5.553-18.076-11.296-28.527-14.363
	c-12.725-3.734-24.477-9.225-37.611-11.026c-11.083-1.52-24.193-2.364-34.463-6.948c-13.526-6.039-25.323-8.369-40.146-8.526
	c-6.435-0.068-12.542-0.571-18.928,0.026c-5.042,0.471-10.356,1.391-15.463,0.974c-3.118-0.255-5.989-1.442-9-1.5"/>
<path fill="none" stroke="#000000" stroke-width="4" stroke-miterlimit="10" d="M229,401.29c7.433,0.244,20.424-0.308,27.984-0.652
	c15.623-0.713,28.527,0.014,44-0.158c27.379-0.304,52.547-0.949,79.312-0.503c27.118,0.452,49.114,1.119,76.27,1.313
	c20.213,0.145,45.349,0.67,65.462,0.71c26.578,0.053,53.232-1.292,79.711,0.473c9.134,0.608,23.448,0.17,32.956,1.71"/>
</svg>
