<?xml version="1.0" encoding="utf-8"?>
<!-- Generator: Adobe Illustrator 16.2.1, SVG Export Plug-In . SVG Version: 6.00 Build 0)  -->
<!DOCTYPE svg PUBLIC "-//W3C//DTD SVG 1.1//EN" "http://www.w3.org/Graphics/SVG/1.1/DTD/svg11.dtd">
<svg version="1.1" xmlns="http://www.w3.org/2000/svg" xmlns:xlink="http://www.w3.org/1999/xlink" x="0px" y="0px" width="612px"
	 height="792px" viewBox="0 0 612 792" enable-background="new 0 0 612 792" xml:space="preserve">
<g id="Layer_1">
</g>
<g id="Layer_3">
</g>
<g id="Layer_2">
</g>
<g id="Layer_4">
</g>
<g id="Layer_7">
</g>
<g id="Layer_10">
</g>
<g id="Layer_8">
</g>
<g id="Layer_12">
</g>
<g id="Layer_9">
</g>
<g id="Layer_11">
</g>
<g id="Layer_5">
</g>
<g id="Layer_6">
	<g>
		<path fill="#FFFFFF" stroke="#000000" stroke-width="2" stroke-miterlimit="10" d="M284.542,180.099
			c0.601,4.367-1.445,7.46-2.764,11.391c-0.547,1.63-0.777,3.344-1.26,4.99c-0.633,2.162-1.87,4.171-2.909,6.16
			c-0.555,1.061-0.642,2.513-1.361,3.487c-0.696,0.941-1.702,0.655-2.717,0.927c-0.964,0.258-2.48,0.571-3.279,1.048
			c-0.459,0.273-0.651,0.935-1.117,1.155c-0.467,0.22-1.379-0.11-1.786-0.19c-1.282-0.252-2.146-0.642-3.353-0.148
			c-1.069,0.437-1.949,1.23-3.138,1.385c-1.07,0.138-1.956-0.206-2.932-0.398c-2.522-0.498-5.003,0.421-7.514,0.184
			c-1.394-0.133-2.809-0.207-4.136-0.604c-1.068-0.318-1.798-0.894-2.972-0.679c-1.698,0.311-3.353,0.575-5.099,0.74
			c-1.889,0.178-3.566-0.485-5.401-0.628c-2.799-0.218-5.614-0.765-8.386-0.919c-1.111-0.062-2.234,0.068-3.346,0
			c-1.242-0.077-1.829-0.952-2.926-1.256c-0.741-0.205-1.838,0.149-2.495-0.338c-0.67-0.497-1.122-2.12-1.488-2.913
			c-0.932-2.014-1.488-4.277-2.07-6.387c-0.662-2.396-1.53-4.786-2.141-7.195c-0.556-2.188-0.471-4.35-0.81-6.617
			c-0.177-1.181-0.618-2.562-0.427-3.773c0.173-1.091,0.992-1.94,1.553-2.908c1.047-1.808,2.2-2.87,3.917-4.078
			c1.497-1.052,3.13-0.764,4.609-1.881c3.072-2.321,5.459-6.047,9.106-7.648c1.741-0.765,3.289,0.186,5.002-0.023
			c1.698-0.208,2.518-2.379,3.894-3.429c0.655-0.501,1.286-1.32,2.179-1.282c0.874,0.038,1.822,1.055,2.484,1.589
			c1.425,1.149,2.621,2.635,4.111,3.643c3.415,2.312,7.016-1.863,9.658-3.536c1.647-1.043,3.345-0.948,4.865,0.213
			c0.904,0.69,1.613,1.662,2.513,2.303c0.643,0.457,1.677,0.745,2.518,1.026c1.095,0.366,2.416-0.059,3.481,0.406
			c0.639,0.278,1.092,0.765,1.776,0.957c0.606,0.171,0.87,0.065,1.388,0.516c1.005,0.876,1.537,2.373,2.33,3.435
			c0.569,0.762,1.227,1.407,1.75,2.198c0.452,0.684,0.898,1.585,1.565,2.094c1.134,0.865,2.227,0.391,3.462,0.646
			C282.842,174.166,284.294,178.295,284.542,180.099z"/>
		<path fill="#FFFFFF" stroke="#000000" stroke-width="2" stroke-miterlimit="10" d="M282.32,191.98
			c0.343,0.499,0.941,0.893,1.233,1.385c0.268,0.451,0.203,0.938,0.416,1.363c0.32,0.642,1.004,1.279,1.41,1.861
			c1.174,1.684,4.88,4.237,3.664,0.286c-0.695-2.259-1.241-4.642,0.398-6.55c0.437-0.508,0.874-1.43,1.593-1.488
			c1.075-0.089,1.127,1.195,2.385,0.63c0.374-0.167,0.495-0.592,0.94-0.63c0.434-0.037,0.78,0.346,1.254,0.421
			c0.923,0.146,1.633-0.561,2.489-0.109c0.801,0.422,1.478,2.054,1.889,2.813c0.687,1.267,1.224,2.676,1.492,4.103
			c0.502,2.662-1.305,3.854-3.358,4.939c-1.833,0.969-4.251,1.602-6.36,1.445c-2.707-0.201-6.079-1.029-7.561-3.555
			c-0.397-0.677-0.546-1.495-1.068-2.094c-0.626-0.717-1.374-0.22-1.842-0.649c-1.094-1.002,0.74-2.824,0.921-3.648"/>
		<path fill="#FFFFFF" stroke="#000000" stroke-width="2" stroke-miterlimit="10" d="M210.082,192.714
			c0.238,0.128-0.676,0.212-1.004,0.447c-0.312,0.224-0.47,0.603-0.771,0.837c-0.896,0.698-1.974,0.458-2.949,0.892
			c-0.82,0.363-1.037,1.049-2.081,0.862c-1.388-0.247-1.212-1.802-1.494-2.944c-0.436-1.763-1.807-5.797-3.638-6.487
			c-2.905-1.097-2.194,4.215-2.332,5.57c-0.133,0.085-0.276,0.113-0.432,0.084c-0.531-1.061-0.625-2.226-2.051-2.509
			c-1.36-0.271-2.146,0.796-3.229,1.499c-1.878,1.22-2.639,2.66-2.634,4.996c0.007,3.291,2.819,4.705,5.456,5.262
			c1.499,0.316,2.304,0.181,3.6-0.427c1.034-0.485,2.142-0.48,3.274-0.779c0.947-0.25,1.896-0.293,2.934-0.394
			c1.197-0.115,2.266-0.867,3.372-1.335c1.4-0.592,2.456-1.575,3.549-2.607c1.176-1.11,0.791-1.603,0.952-3.071"/>
		<path fill="#FFFFFF" stroke="#000000" stroke-width="2" stroke-miterlimit="10" d="M318.335,269.926
			c0.442-3.609,1.421-6.974,1.413-10.782c-0.004-2.479,0.298-4.942,0.157-7.435c-0.141-2.498-1.308-5.304-2.359-7.547
			c-3.187-6.801-9.15-13.075-14.481-18.36c-3.547-3.516-6.972-6.374-11.272-9.003c-2.966-1.813-6.357-2.211-9.266-4.08
			c-1.793-1.152-3.17-2.579-5.466-2.626c-1.637-0.033-3.215,0.562-4.896,0.317c-2.794-0.405-9.302-0.958-10.286-0.982
			c-2.041-0.05-4.503,0.204-6.586,0.028c-2.166-0.183-3.878,0.588-6.056,0.479c-3.618-0.18-7.442-0.471-10.998-0.471
			c-6.069,0-12.11,0.157-18.177,0.157c-2.612,0-5.408,0.439-7.58,1.888c-1.104,0.736-3.018,0.703-4.547,0.703
			c-1.57,0-2.71,2.354-3.935,3.066c-0.979,0.57-2.21,0.968-3.289,1.413c-2.507,1.036-3.874,2.913-5.969,4.738
			c-2.678,2.334-4.918,5.426-7.851,7.345c-2.86,1.873-4.985,4.234-6.906,7.141c-1.441,2.184-3.241,4.037-4.091,6.547
			c-0.715,2.109-1.095,4.404-1.449,6.602c-0.44,2.736-0.363,5.505-0.554,8.284c-0.178,2.581-0.688,6.074,0,8.653
			c0.36,1.35,1.3,3.017,2.129,4.079c1.007,1.293,1.753,1.912,3.176,2.278c1.569,0.404,1.826,1.015,3.298,1.803
			c1.55,0.83,3.237,1.057,4.828,1.896c3.029,1.599,5.888,3.056,8.835,4.824c1.289,0.773,2.81,0.881,4.083,1.441
			c1.015,0.445,5.386,1.871,6.592,1.892c4.812,0.082,9.4,1.174,14.138,1.413c4.068,0.206,7.856,0.676,11.785,1.249
			c3.098,0.452,6.252,0.955,9.414,1.256c1.512,0.144,2.959,0.44,4.556,0.322c2.266-0.167,4.393-1.081,6.639-1.413
			c6.972-1.027,13.769-2.344,20.717-3.106c3.41-0.374,6.992-1.277,10.455-1.797c3.66-0.549,7.146-1.79,10.592-2.749
			c2.787-0.775,5.756-1.408,8.61-2.045c2.911-0.649,6.68-1.27,9.261-2.709c0.666-0.371,0.709-0.989,1.253-1.5
			c0.763-0.716,0.629-0.416,1.605-0.733c1.924-0.626,2.152-1.104,2.469-3.274c0.352-2.41,1.6-4.885,1.422-7.37"/>
		<path fill="#FFFFFF" stroke="#000000" stroke-width="2" stroke-miterlimit="10" d="M171.687,241.658
			c1.093,2.917,0,6.281,2.492,9.755c0.065,3.573-0.907,7.067-1.027,10.66c-2.592-2.042-4.523-4.688-5.689-6.822
			c-2.197-4.02-4.487-6.632-6.089-9.745c-0.758-1.473-1.996-1.878-2.358-3.5c-0.042-0.188,0.216-1.617,0.159-1.918
			c-0.065-0.357-1.44-2.036-1.499-2.453c-0.095-0.681,0.399-1.57,0.296-2.058c-0.133-0.623-0.565-1.249-0.681-1.85
			c-0.052-0.268-0.474-0.699-0.515-0.864c-0.064-0.255,0.13-0.584-0.028-1.061c-0.158-0.476-0.962-1.743-1.098-2.245
			c-0.204-0.755,0.273-1.024,0.199-1.55c-0.11-0.777-2.167-2.186-0.263-1.886c-0.463-0.869-0.861-1.529-1.673-2.061
			c-0.774-0.507-1.534-0.661-2.198-1.654c-1-1.494-1.28-3.869,0.078-5.091c1.095-0.983,2.486,0.107,2.285-1.954
			c-0.143-1.467,0.197-2.54-0.793-3.542c-0.955-0.966-3.402-2.454-4.588-3.109c-1.021-0.564-3.31-0.512-3.268-2.23
			c0.05-2.035,4.406-2.14,5.971-2.12c2.348,0.03,6.721,2.517,6.129-1.652c-0.355-2.497-2.454-4.761-4.087-6.592
			c-1.01-1.132-2.479-2.022-1.178-3.141c1.134-0.975,3.484-0.665,4.868-0.472c1.65,0.23,2.453,0.422,3.926,1.276
			c0.652,0.378,1.561,1.319,2.155,1.696c1.072,0.681,1.648,1.961,2.791,2.523c-0.479-1.054,0.221-1.933-0.628-2.904
			c-0.629-0.722-2.143-1.449-2.83-2.137c-1.774-1.775-3.651-1.913-6.199-1.946c-2.294-0.031-5.025,0.628-6.666-0.437
			c-1.766-0.545-3.496,2.083-5.646,4.44c-0.012-0.061-0.023-0.121-0.035-0.182c0.556-2.054,2.036-3.991,2.535-4.371
			c0.821-0.626,1.898-1.534,2.858-2.007c3.733-1.842,6.499-0.038,9.073,0.749c2.373,0.727,4.057,1.201,6.203,2.513
			c1.02,0.623,2.755,2.449,3.376,5.104c0.484,2.067,1.371,3.055,1.885,2.826c0.892-0.397,1.424-3.565,2.277-4.633
			c0.761-0.952,2.936-1.113,3.575,0.67c0.353,0.983-0.888,1.802-0.983,2.786c-0.258,2.641,0.003,5.396-0.864,8.008
			c-0.741,2.23-1.217,3.777-2.234,5.977c-1.067,2.31-1.943,5.637-2.635,8.079c-0.837,2.958-0.607,7.623-0.078,10.521
			C169.701,234.954,170.481,238.438,171.687,241.658z"/>
		<path fill="#FFFFFF" stroke="#000000" stroke-width="2" stroke-miterlimit="10" d="M322.968,243.071
			c-1.093,2.917-0.178,6.263-2.67,9.736c-0.065,3.573-0.476,7.714-0.354,11.308c2.591-2.042,5.828-4.524,6.995-6.658
			c2.197-4.019,4.487-6.632,6.089-9.745c0.758-1.472,1.995-1.877,2.358-3.499c0.042-0.188-0.216-1.617-0.16-1.918
			c0.066-0.357,1.441-2.037,1.5-2.453c0.095-0.681-0.4-1.57-0.296-2.058c0.133-0.623,0.564-1.25,0.681-1.85
			c0.052-0.268,0.473-0.699,0.515-0.864c0.064-0.255-0.13-0.585,0.028-1.061c0.157-0.477,1.903-1.43,2.039-1.932
			c0.204-0.754-1.017-1.044-0.942-1.57c0.11-0.776,2.749-1.491,1.007-1.865c0.463-0.869,0.861-1.529,1.672-2.06
			c0.775-0.507,1.535-0.662,2.199-1.654c1-1.494,1.28-3.869-0.079-5.091c-1.094-0.983-2.486,0.106-2.285-1.955
			c0.144-1.466-0.197-2.54,0.794-3.542c0.954-0.966,3.402-2.453,4.588-3.109c1.021-0.564,3.31-0.512,3.268-2.229
			c-0.05-2.036-4.407-2.14-5.972-2.12c-2.347,0.029-6.721,2.516-6.128-1.652c0.354-2.498,2.454-4.762,4.087-6.593
			c1.009-1.132,2.479-2.022,1.178-3.141c-1.134-0.974-3.484-0.664-4.868-0.471c-1.65,0.23-2.453,0.421-3.927,1.275
			c-0.651,0.378-1.56,1.319-2.154,1.697c-1.072,0.68-1.648,1.96-2.791,2.522c0.478-1.054-0.221-1.932,0.627-2.904
			c0.629-0.721,2.144-1.449,2.831-2.137c1.773-1.775,3.65-1.912,6.199-1.946c2.294-0.03,5.025,0.628,6.666-0.436
			c1.765-0.546,3.496,2.082,5.646,4.439c0.012-0.061,0.023-0.121,0.034-0.182c-0.555-2.053-2.036-3.99-2.534-4.371
			c-0.821-0.626-1.899-1.534-2.858-2.007c-3.734-1.842-6.499-0.038-9.073,0.75c-2.374,0.726-4.057,1.201-6.203,2.513
			c-1.02,0.623-2.755,2.449-3.377,5.104c-0.483,2.068-1.37,3.056-1.884,2.827c-0.893-0.397-1.425-3.565-2.277-4.633
			c-0.761-0.952-2.937-1.113-3.576,0.669c-0.353,0.984,0.889,1.803,0.984,2.786c0.258,2.641-0.003,5.396,0.864,8.009
			c0.74,2.229,1.217,3.776,2.233,5.976c1.068,2.31,1.944,5.637,2.635,8.079c0.837,2.958,0.608,7.623,0.079,10.522
			C325.642,237.475,324.174,239.852,322.968,243.071z"/>
		<path fill="#FFFFFF" stroke="#000000" stroke-width="2" stroke-miterlimit="10" d="M171.973,293.952
			c-1.416,0.383-2.82-0.027-4.247-0.003c-1.441,0.024-2.413,0.885-3.766,1.102c-1.329,0.215-2.508-0.131-3.762,0.351
			c-2.816,1.081-4.123,3.02-6.445,4.642c-5.429,3.793-8.411,8.426-10.99,14.49c-1.087,2.556-2.867,4.804-4.243,7.224
			c-1.627,2.862-3.243,5.811-4.672,8.825c-1.207,2.547-2.684,5.735-3.027,8.599c-0.16,1.34,0.322,2.438,0.322,3.769
			c0,1.424-0.404,2.57-0.747,3.808c-0.363,1.316-0.783,2.434,0.119,3.723c1.079,1.54,1.685,0.352,3.298,0.946
			c1.685,0.621,0.649,4.963,0.023,6.387c0.526-0.841,1.294-1.569,1.394-2.583c0.064,2.06-1.319,4.025-2.042,5.67
			c0.255-0.797,0.919-1.237,1.7-1.245c0.05,1.922-2.139,3.893-2.312,5.72c0.448-0.664,0.748-1.5,1.525-1.687
			c0.145,2.063-2.255,3.527-2.15,5.307c0.639,0.072,1.116-0.284,1.377-0.885c-1.536,2.219-1.838,6.184-2.308,8.778
			c-0.427,2.355-0.963,4.396-1.648,6.57c-0.646,2.048-0.14,3.812-1.175,5.7c-1.012,1.847-1.453,3.924-2.378,5.748
			c0.205,0.019,0.381,0.014,0.585,0c0.4-1.301,0.591-2.624,1.131-3.898c0.329-0.777,1.865-3.059,2.971-2.995
			c0.56,0.031,2.272,3.033,2.953,3.815c0.992,1.141,2.167,2.231,3.465,2.943c0.218-2.066-2.831-4.401-3.544-6.276
			c-0.65-1.711-0.259-4.112-0.353-5.972c-0.134-2.646,0.376-5.119,0.627-7.701c0.234-2.398,0.288-5.104,1.928-7.074
			c0.283,1.085,0.078,2.422,0.142,3.546c0.903-1.393,0.285-3.979,0.287-5.574c0-0.397,0.016-3.445,0.8-2.048
			c0.334,0.596-0.033,2.273,0.013,2.979c2.198-0.603-2.065-7.357,0.291-8.028c0.493,0.836,0.038,2.534,0.915,2.845
			c0.108-2.251-1.243-8.756,2.19-8.953c1.019-7.288-2.058-14.756,0.851-21.936c0.986-2.436,3.068-5.274,4.716-7.381
			c1.801-2.301,3.045-4.457,4.484-7.048c1.135-2.045,2.581-4.086,3.6-6.18c0.473-0.973,2.965-6.5,4.291-5.979
			c0.8,0.314,0.218,1.33,0.645,1.747c0.514,0.504,1.368,0.264,2.018,0.342c1.572,0.188,2.232,1.101,3.493,1.967
			c1.779,1.223,4.987,5.089,7.343,4.751c0.313-0.046,0.625,0.014,0.918-0.051c0.173-3.359-0.594-6.607-0.914-9.87
			c-0.288-2.918,0.503-6.302,0.153-8.925"/>
		<path fill="#FFFFFF" stroke="#000000" stroke-width="2" stroke-miterlimit="10" d="M323.151,294.895
			c1.989-0.625,3.074-0.586,4.502-0.562c1.441,0.025,2.521-0.178,3.873,0.039c1.33,0.215,2.639,0.984,3.892,1.466
			c1.638,0.629,2.151,1.688,3.885,3.248c0.99,0.892,2.762,1.189,3.531,2.092c2.766,3.245,7.577,8.233,10.156,14.299
			c1.086,2.556,2.867,4.804,4.243,7.224c1.627,2.862,2.614,5.81,4.043,8.825c1.208,2.546,2.685,5.735,3.027,8.599
			c0.161,1.339-0.321,2.438-0.321,3.769c0,1.424,0.404,2.569,0.746,3.808c0.364,1.316,0.784,2.748-0.118,4.036
			c-1.079,1.541-2.313,0.667-3.926,1.261c-1.686,0.621-0.021,4.335,0.604,5.759c-0.527-0.841-1.294-1.569-1.394-2.583
			c-0.064,2.06,1.319,4.025,2.041,5.67c-0.255-0.797-0.919-1.237-1.7-1.245c-0.05,1.921,2.14,3.893,2.312,5.72
			c-0.447-0.664-0.747-1.5-1.525-1.687c-0.145,2.063,1.566,3.531,2.15,5.307c-0.639,0.072-1.116-0.284-1.377-0.885
			c0.615,3.003,1.524,6.184,1.994,8.778c0.427,2.355,0.963,4.396,1.648,6.57c0.646,2.047-0.175,4.439,0.86,6.328
			c1.012,1.847,1.454,3.924,2.378,5.748c-0.205,0.02-0.381,0.014-0.584,0c-0.401-1.301-1.058-2.209-1.599-3.483
			c-0.329-0.776-1.511-2.575-2.617-2.513c-0.56,0.032-1.53,1.508-2.212,2.29c-0.991,1.141-2.166,2.231-3.464,2.943
			c1.488-1.884,2.83-4.401,3.543-6.276c0.651-1.711-0.265-3.379-0.171-5.238c0.134-2.646,0.148-5.854-0.104-8.436
			c-0.233-2.397-0.288-5.104-1.928-7.073c-0.283,1.085-0.078,2.422-0.141,3.546c-0.904-1.393-0.286-3.979-0.288-5.574
			c0-0.397-0.016-3.445-0.8-2.048c-0.334,0.596,0.034,2.273-0.013,2.979c-1.438-3.391,0.312-5.616-0.29-8.028
			c-0.493,0.836-0.038,2.533-0.915,2.845c-0.059-1.209,0.305-3.646,0.121-5.674c-0.062-0.676-0.668,4.954-2.553,5.792
			c1.513-3.424,1.718-8.424,1.379-8.678c-0.304-0.228-0.678-0.368-1.139-0.395c0.388-6.908,2.058-14.756-0.851-21.935
			c-0.986-2.436-3.683-5.846-4.834-8.567c-1.139-2.691-1.992-3.062-3.432-5.653c-1.136-2.045-2.564-4.189-3.583-6.282
			c-0.473-0.973-1.919-6.175-3.245-5.653c-0.314,0.123-0.954-0.181-1.361,0c-0.629,0.278-0.707,1.062-0.965,1.316
			c-0.515,0.503-1.631,0.805-2.28,0.882c-1.572,0.188-2.285,0.561-3.546,1.427c-1.779,1.224-5.144,4.437-7.865,5.588
			c-0.173-3.358,0.198-7.495,0.52-10.758c0.287-2.918-0.503-6.302-0.153-8.925"/>
		<path fill="#FFFFFF" stroke="#000000" stroke-width="2" stroke-miterlimit="10" d="M176.056,330.386
			c-2.315-0.706-4.369-1.491-6.831-2.002c-2.553-0.529-4.923-0.981-7.655-0.981c-4.687,0-8.972,0.553-12.956,3.023
			c-1.963,1.217-4.661,3.359-5.728,4.986c-1.32,2.013-0.878,4.605-1.214,6.917c-0.622,4.284-0.636,9.034-0.636,13.45
			c-0.096-0.648,0.274-0.935,0.443-1.667c0.136,2.358-0.436,4.984-0.129,7.233c0.048-0.124,0.393-0.394,0.596-0.635
			c0.17,2.318-0.107,5.283,0.307,7.337c0.071-0.202,0.363-0.588,0.432-0.875c0.269,2.011-0.081,4.487-0.078,6.524
			c0.001,0.987,0,2.506,0.13,3.632c0.184-0.942,0.341-1.598,0.852-2.383c0.078,1.963,0.098,5.551,0.196,7.538
			c0.027,0.542,0.561,0.246,0.589,1.1c0.06,1.773-0.314,4.211-0.314,5.339c0,1.874,0.837,0.659,1.1,1.178
			c0.183,0.359,0.446,3.587,0.432,5.052c-0.007,0.7-0.331,1.619-0.16,2.294c0.118,0.462,0.85-0.052,1.063,0.507
			c0.471,1.229,0.209,4.225,0.235,5.535c0.023,1.134,0.196,2.977,0.196,4.712c0,1.335,0.169,2.669,0.401,3.839
			c0.28,1.413,0.267,5.779,0.816,7.271c0.589-0.824,0.393-3.04,0.741-3.517c1.005,0.909,1.103,3.369,1.339,4.616
			c0.401,2.111,0.751,0.441,1.218,1.374c0.745,1.491,0.972,6.617,1.099,9.226c0.642-0.997,0.675-1.573,0.824-2.277
			c0.339,2.283,0.604,4.187,1.775,6.07c0.049-1.048,0.042-2.157,0.275-3.159c0.067,1.865,1.142,4.78,1.837,6.473
			c0.434,1.058,1.146,0.169,1.491,1.256c0.356,1.123,0.321,4.018,0.885,4.887c0.293-1.117,0.564-1.908,0.607-2.806
			c1.335,7.146,5.379,4.044,10.482,4.986c1.158,0.214,2.051,0.492,3.109,1.061c0.584,0.313,2.064,1.484,2.623,1.569
			c0.685,0.105,0.855-0.797,1.413-0.785c3.18,0.903,4.728,4.555,5.222,4.555c-0.265-0.824-0.488-0.878-0.746-1.924
			c0.707,0.432,0.914,0.786,2.198,1.452c-0.589-0.926-1.967-1.691-2.198-2.355c1.312,0.483,5.786,3.506,7.538,4.122
			c-1.335-1.138-1.767-1.648-2.396-2.552c1.768,0.55,2.001,1.067,3.477,1.375c0.961,0.201,3.826,0.98,5.2,1.609
			c-0.208-0.571-2.091-1.218-2.748-1.963c1.728,0.235,3.415,0.367,5.111,0.585c1.455,0.188,2.895,0.608,4.312,0.828
			c1.799,0.278,3.563,0.904,4.971,1.691c1.234,0.69,2.344,1.047,3.124,1.41c1.014,0.471,2.008,0.687,3.212,1.139
			c1.27,0.476,2.474,0.117,3.769-0.393c1.147,0.261,2.399,1.013,3.377,1.767c0.518,0.398,3.077,2.14,4.75,3.141
			c-0.955-1.449-3.898-4.082-5.339-5.064c-0.647-0.441-1.081-0.599-2.396-1.061c-0.078-0.628,0-1.491-0.039-2.159
			c0.708-0.235,1.761-0.503,2.435-0.824c0.967-0.461,3.445-1.159,4.593-1.924c-1.688,0.314-2.856,0.567-4.437,1.217
			c-1.173,0.482-1.954,0.72-3.298,0.785c-1.806-0.745-2.799-1.366-4.279-1.57c-1.338-0.184-4.416-0.541-5.771-0.694
			c-2.199-0.248-4.358-0.444-7.27-0.636c-1.769-0.116-4.748-0.357-7.041-1.093c0.749-0.048,2.146-0.402,3.828-0.482
			c-0.72,0.098-4.26-0.031-5.262,0.008c-1.421,0.056-2.201-0.009-3.357-0.609c1.056,0.072,2.455-0.184,3.829-0.301
			c-2.944-0.55-7.46-0.079-8.924-1.276c2.241-0.261,2.563-0.727,5.192-0.979c-2.864-1.476-5.718-2.025-8.675-3.595
			c-1.176-0.624-1.1-1.872-2.367-2.367c-1.36-0.531-2.338-0.392-3.667-1.276c-2.075-1.384-3.48-1.703-4.802-3.895
			c-0.215-0.356-0.217-1.314-0.681-2.042c-0.394-0.615-1.266-1.016-1.355-1.253c-0.37-0.975,0.967-0.878,0.6-2.352
			c-0.374-1.499-2.366-1.18-2.474-2.854c0.398-0.084,0.556-0.378,1.06-0.318c0.008-0.953-1.331-1.469-1.904-2.171
			c-0.523-0.642-1.205-1.803-1.491-2.555c-0.462-1.213,0.875,0.085,0.187-1.088c-0.251-0.428-1.583-1.177-2.271-4.057
			c-0.123-0.516-0.111-0.91-0.307-1.422c-0.426-1.112-1.073-1.349-1.269-2.591c-0.11-0.699,0.429-1.386,0.326-2.111
			c-0.08-0.572-0.78-1.188-0.979-1.724c-0.705-1.895-0.986-3.547-0.881-5.634c0.181,0.033,0.382,0.027,0.584,0.078
			c-1.306-4.18-1.22-8.876-2.139-13.254c-1.219-5.807-1.99-11.706-2.513-17.589c-0.41-4.616-2.018-9.221-2.591-13.819
			c-0.268-2.146-0.741-4.351-1.34-6.446c-0.405-1.423-0.796-2.938-0.819-4.465c-0.03-1.906,0.071-2.975,1.884-1.691
			c1.396,0.988,2.042,1.897,3.612,2.709c1.658,0.856,3.012,2.105,4.476,2.944c2.794,1.6,5.331,2.586,8.205,3.966
			c3.313,1.589,8.284,3.141,9.819,3.533c1.831,0.469,3.228,0.395,3.765,0c-0.196-1.885-0.253-5.716-0.597-7.52
			c-0.754-3.967-0.589-8.176-1.276-12.271c-0.457-2.729-0.645-5.308-0.386-8.17C178.056,330.635,176.328,330.304,176.056,330.386"/>
		<path fill="#FFFFFF" stroke="#000000" stroke-width="2" stroke-miterlimit="10" d="M319.003,331.015
			c2.316-0.707,4.369-1.492,6.831-2.003c2.553-0.529,4.923-0.981,7.655-0.981c4.687,0,8.305,0.475,12.289,2.944
			c1.963,1.218,5.014,3.125,6.081,4.752c1.319,2.013,1.271,4.598,1.607,6.908c0.622,4.284,0.242,9.043,0.242,13.458
			c0.095-0.647-0.275-0.934-0.444-1.666c-0.135,2.358,0.437,4.983,0.129,7.233c-0.048-0.124-0.392-0.394-0.596-0.636
			c-0.17,2.318,0.107,5.284-0.306,7.337c-0.072-0.202-0.364-0.588-0.433-0.874c-0.268,2.011,0.081,4.487,0.079,6.524
			c-0.002,0.987,0,2.505-0.131,3.631c-0.183-0.942-0.341-1.597-0.852-2.382c-0.078,1.963-0.097,5.551-0.196,7.538
			c-0.026,0.542-0.56,0.245-0.589,1.099c-0.06,1.773,0,4.525,0,5.653c0,1.875-0.836,0.66-1.099,1.178
			c-0.183,0.359-0.446,3.587-0.433,5.052c0.007,0.7,0.332,1.619,0.16,2.294c-0.117,0.462-0.849-0.052-1.062,0.507
			c-0.471,1.229-0.209,3.597-0.235,4.907c-0.023,1.134-0.196,2.977-0.196,4.712c0,1.335-0.169,2.669-0.401,3.839
			c-0.281,1.413-0.267,5.779-0.816,7.271c-0.589-0.824-0.393-3.04-0.741-3.517c-1.005,0.909-1.417,4.312-1.653,5.558
			c-0.401,2.112-0.751,0.442-1.217,1.375c-0.746,1.491-0.658,5.675-0.785,8.283c-0.642-0.997-0.675-1.573-0.825-2.277
			c-0.196,1.021-0.491,0.548-0.667,1.139c-0.294,0.987,0.103,3.508-0.274,3.809c-0.525-0.065-1.179-0.274-1.61-0.707
			c-0.067,1.866-0.641,3.451-1.335,5.144c-0.434,1.058-1.696,0.326-2.041,1.413c-0.355,1.122-1.021,3.533-1.1,5.34
			c-0.293-1.117-0.546-1.615-0.589-2.513c-1.335,7.146-4.672,3.611-9.775,4.554c-1.158,0.214-2.012,0.021-3.071,0.59
			c-0.584,0.313-2.063,1.484-2.622,1.569c-0.685,0.105-0.856-0.797-1.413-0.785c-3.18,0.903-4.728,4.555-5.222,4.555
			c0.265-0.824,0.488-0.878,0.746-1.924c-0.707,0.432-0.914,0.786-2.198,1.452c0.589-0.926,1.967-1.691,2.198-2.355
			c-1.312,0.483-5.786,3.506-7.538,4.122c1.335-1.138,1.767-1.648,2.395-2.552c-1.767,0.55-2.001,1.067-3.476,1.375
			c-0.961,0.201-5.004,1.53-6.378,2.158c0.208-0.57,2.051-1.295,2.709-2.041c-1.728,0.235-2.198-0.104-3.896,0.114
			c-1.455,0.188-2.894,0.608-4.311,0.828c-1.799,0.278-4.05,0.783-5.457,1.57c-1.235,0.69-1.89,0.894-2.67,1.256
			c-1.013,0.472-2.211,0.806-3.415,1.257c-1.27,0.477-2.866-0.039-4.162-0.55c-1.147,0.261-2.398,1.014-3.376,1.767
			c-0.518,0.399-3.077,2.141-4.751,3.141c0.956-1.448,3.899-4.082,5.34-5.064c0.646-0.44,1.081-0.598,2.395-1.06
			c0.079-0.628-0.196-1.218-0.156-1.885c-0.709-0.235-0.937-0.464-1.61-0.785c-0.967-0.461-3.446-1.159-4.593-1.924
			c1.688,0.314,2.856,0.567,4.436,1.217c1.173,0.482,1.405,0.603,2.749,0.668c1.806-0.746,2.562-1.171,4.043-1.374
			c1.339-0.184,5.202-0.62,6.557-0.773c2.199-0.248,4.358-0.444,7.27-0.636c1.769-0.116,4.414,0.023,6.707-0.711
			c-0.749-0.048-2.479-0.627-4.161-0.707c0.72,0.098,4.377,0,5.379,0.039c1.421,0.056,1.735,0.224,2.892-0.376
			c-0.379-0.252-2.225-0.174-3.599-0.291c2.944-0.55,8.233-0.137,9.697-1.335c-2.241-0.26-2.552-1.1-5.181-1.352
			c2.864-1.476,5.718-2.025,8.675-3.595c1.176-0.624,1.1-1.872,2.367-2.367c1.36-0.531,2.338-0.392,3.667-1.276
			c2.075-1.384,3.48-1.703,4.802-3.895c0.215-0.356,0.217-1.314,0.681-2.042c0.394-0.615,1.266-1.016,1.355-1.253
			c0.37-0.975-0.967-0.878-0.6-2.352c0.374-1.499,2.366-1.18,2.474-2.854c-0.398-0.084-0.556-0.378-1.06-0.318
			c-0.009-0.953,1.33-1.469,1.904-2.171c0.523-0.642,1.205-1.803,1.491-2.555c0.462-1.213-0.876,0.085-0.187-1.088
			c0.25-0.428,1.583-1.177,2.271-4.057c0.123-0.516,0.111-0.91,0.307-1.422c0.426-1.112,1.073-1.349,1.269-2.591
			c0.11-0.699-0.429-1.386-0.326-2.111c0.08-0.572,0.78-1.188,0.979-1.724c0.705-1.895,0.986-3.547,0.881-5.634
			c-0.182,0.033-0.382,0.027-0.584,0.078c1.306-4.18,1.22-8.876,2.139-13.254c1.219-5.807,2.618-10.765,3.141-16.646
			c0.41-4.616,2.018-9.221,2.591-13.819c0.269-2.146,0.741-4.351,1.34-6.447c0.406-1.422,1.032-2.785,1.056-4.311
			c0.029-1.906,0.006-2.814-1.807-1.531c-1.395,0.988-2.355,1.584-3.926,2.396c-1.658,0.856-3.011,2.105-4.476,2.944
			c-2.794,1.6-5.449,2.704-8.323,4.083c-3.312,1.59-8.794,2.081-10.329,2.474c-1.832,0.469-3.228,0.395-3.765,0
			c0.196-1.885,1.062-5.526,1.404-7.33c0.755-3.967,1.974-7.632,2.66-11.727c0.457-2.729,0.144-5.138-0.115-8
			c0.178-0.177,0.215-1.411,0.486-1.329"/>
		<path fill="#FFFFFF" stroke="#000000" stroke-width="2" stroke-miterlimit="10" d="M318.178,326.774
			c-1.067-2.517,1.812-6.279,3.264-8.324c1.852-2.61,1.798-6.344,1.918-9.417c0.347-8.799-0.016-15.981-3.416-22.775
			c-1.527-3.051-3.732-5.444-6.477-7.538c-1.633-1.246-3.886-2.812-5.521-2.297c-1.426,0.447-1.193,0.302-2.646,0.931
			c-1.812,0.786-3.731,1.48-7.695,2.309c-1.842,0.385-9.221,0.881-13.63,2.198c-2.154,0.644-4.03,0.89-6.251,1.088
			c-1.62,0.145-2.949,0.867-4.582,0.957c-1.701,0.095-3.325,0.127-5.011,0.502c-3.964,0.883-8.172,1.595-11.989,2.91
			c-1.509,0.521-2.985,0.87-4.566,1.261c-1.325,0.328-3.892,0.622-5.009,0.82c-2.823,0.501-5.962,0.024-8.763-0.662
			c-7.116-1.746-14.096-3.107-21.676-3.107c-4.8,0-9.086-1.369-13.694-2.32c-3.8-0.784-7.596-2.098-11.146-3.489
			c-1.982-0.778-6.457-2.998-8.637-2.019c-0.994,0.447-2.774,2.881-3.428,3.758c-1.024,1.376-1.59,2.944-2.697,4.228
			c-1.286,1.49-2.387,2.336-2.979,4.249c-0.507,1.635-0.847,3.355-1.111,5.037c-0.575,3.637-1.064,7.15-0.498,10.826
			c0.523,3.402,0.735,6.862,1.604,10.197c0.815,3.124,1.966,4.754,3.299,7.694c0.612,1.353,0.807,3.64,1.095,5.084
			c0.631,3.165,0.512,6.572,0.667,9.784c0.336,6.979,1.485,13.747,2.439,20.604c0.404,2.906,1.638,7.088,2.551,9.913
			c1.629,5.038,2.041,7.179,3.452,9.647c3.735,6.535,6.936,11.884,11.99,17.521c4.041,4.506,9.825,9.655,15.652,11.936
			c3.884,1.521,7.562,4.497,11.586,5.374c3.403,0.742,6.966,2.152,10.558,2.32c2.963,0.139,5.896,0.603,8.76,0.785
			c3.139,0.2,6.002-1.727,9.298-1.727c2.437,0,6.449-0.703,8.795-1.414c3.147-0.951,4.628-1.307,7.739-2.355
			c9.94-3.352,19.291-8.776,26.03-17.158c2.918-3.629,5.31-7.121,7.732-11.065c1.744-2.839,3.548-5.677,4.512-8.96
			c1.173-3.996,2.897-7.688,3.463-11.812c0.478-3.481,0.742-7.599,2.182-10.824c1.897-4.249,2.629-7.954,2.679-12.609
			c0.021-2.021,0.179-3.939-0.009-5.945c-0.147-1.583-0.437-3.252-0.306-4.856c0.08-0.979,0.453-1.881,0.471-2.826"/>
		<path fill="none" stroke="#000000" stroke-width="2" stroke-miterlimit="10" d="M247.575,289.241
			c-0.076,2.335,0.097,6.415,0.205,8.79c0.225,4.906-0.004,8.959,0.05,13.819c0.096,8.599,0.298,16.504,0.158,24.91
			c-0.142,8.518-0.352,15.426-0.413,23.955c-0.045,6.349-0.21,14.243-0.223,20.561c-0.017,8.348,0.406,16.719-0.148,25.035
			c-0.191,2.869-0.054,7.365-0.537,10.352"/>
	</g>
</g>
</svg>
